<svg xmlns="http://www.w3.org/2000/svg" viewBox="0 0 800 1100"><defs><linearGradient id="skin" x1="0" y1="0" x2="1" y2="1"><stop stop-color="#c98762"/><stop offset="1" stop-color="#6d3829"/></linearGradient><linearGradient id="shirt" x1="0" y1="0" x2="0" y2="1"><stop stop-color="#ff7658"/><stop offset="1" stop-color="#c82f34"/></linearGradient><linearGradient id="cap" x1="0" y1="0" x2="1" y2="1"><stop stop-color="#233a72"/><stop offset="1" stop-color="#111d40"/></linearGradient><filter id="shadow"><feDropShadow dx="0" dy="14" stdDeviation="12" flood-color="#071524" flood-opacity=".32"/></filter></defs><g filter="url(#shadow)" stroke="#17223a" stroke-width="18" stroke-linejoin="round" stroke-linecap="round"><ellipse cx="410" cy="1030" rx="232" ry="46" fill="#071524" opacity=".25" stroke="none"/><path d="M266 887c-39 55-65 109-76 158h122l72-133z" fill="#23385e"/><path d="M434 885l55 159h122c-18-47-48-101-88-161z" fill="#23385e"/><path d="M190 988h129l-22 68H170c0-26 7-49 20-68zM495 986h114c28 22 43 45 43 70H487z" fill="#13213a"/><path d="M267 710c32-39 73-60 122-62h103c49 10 87 34 111 70l-54 120c-89 31-176 26-260-14z" fill="url(#shirt)"/><path d="M305 693c65 42 137 49 217 18l37 53c-97 48-196 43-297-15z" fill="#ffd74a" stroke-width="10"/><path d="M305 747c-76-43-122-108-137-195l82-15c19 69 56 116 112 143z" fill="url(#shirt)"/><path d="M534 751c14-87 43-164 89-232l73 42c-41 65-62 132-66 201z" fill="url(#shirt)"/><circle cx="204" cy="543" r="47" fill="url(#skin)"/><circle cx="660" cy="523" r="47" fill="url(#skin)"/><circle cx="665" cy="520" r="24" fill="#b4152d" stroke="#fff" stroke-width="8"/><path d="M328 635c-21-46-18-95 4-139 28-57 77-85 136-87 61-2 114 25 144 71 32 50 31 113-3 165-39 61-111 92-180 77-46-10-82-40-101-87z" fill="url(#skin)"/><path d="M345 482c40-69 116-102 190-79 56 17 94 57 108 111-53-34-112-42-175-25-50 14-91 12-123-7z" fill="#261b17"/><path d="M333 466c89 19 176 5 260-43l48 39c-70 63-172 88-306 69z" fill="url(#cap)"/><path d="M562 429c48 4 88 19 121 46l-24 38c-39-19-77-29-114-28z" fill="#233a72"/><ellipse cx="421" cy="548" rx="30" ry="24" fill="#fff"/><ellipse cx="536" cy="550" rx="30" ry="24" fill="#fff"/><circle cx="428" cy="550" r="12" fill="#1d2b3d" stroke="none"/><circle cx="543" cy="552" r="12" fill="#1d2b3d" stroke="none"/><path d="M387 510c28-18 56-17 83 1M502 511c28-16 57-14 83 5" fill="none" stroke="#2c2130" stroke-width="15"/><path d="M475 548c-9 25-11 43-5 57 13 7 27 7 40 0" fill="none" stroke="#6e392b" stroke-width="12"/><path d="M434 642c41 22 83 19 121-10" fill="none" stroke="#7f342e" stroke-width="15"/></g></svg>